<?xml version="1.0" encoding="utf-8"?>
<svg width="800px" height="800px" viewBox="0 0 20 20" version="1.1" xmlns="http://www.w3.org/2000/svg" fill="#ffffff" stroke="#ffffff">
  <g id="SVGRepo_bgCarrier" stroke-width="0"/>
  <g id="SVGRepo_tracerCarrier" stroke-linecap="round" stroke-linejoin="round"/>
  <g id="SVGRepo_iconCarrier" transform="matrix(1, 0, 0, 1, 0, 0.19441)">
    <title>linkedin [#ffffff]</title>
    <desc>Created with Sketch.</desc>
    <g id="Page-1" stroke="none" stroke-width="1" fill="none" fill-rule="evenodd">
      <g id="Dribbble-Light-Preview" transform="translate(-180.000000, -7479.000000)" fill="#ffffff">
        <g id="icons" transform="translate(56.000000, 160.000000)">
          <path d="M 141.449 7336.26 L 138.469 7336.26 L 138.469 7331.05 C 138.469 7329.62 137.838 7328.82 136.707 7328.82 C 135.475 7328.82 134.745 7329.65 134.745 7331.05 L 134.745 7336.26 L 131.765 7336.26 L 131.765 7326.58 L 134.745 7326.58 L 134.745 7327.66 C 134.745 7327.66 135.679 7326.03 137.786 7326.03 C 139.894 7326.03 141.449 7327.31 141.449 7329.97 L 141.449 7336.26 Z M 128.369 7325.03 C 127.364 7325.03 126.55 7324.21 126.55 7323.19 C 126.55 7322.18 127.364 7321.36 128.369 7321.36 C 129.373 7321.36 130.188 7322.18 130.188 7323.19 C 130.188 7324.21 129.373 7325.03 128.369 7325.03 Z M 126.55 7336.26 L 130.275 7336.26 L 130.275 7326.58 L 126.55 7326.58 L 126.55 7336.26 Z" id="linkedin-[#ffffff]" style=""/>
        </g>
      </g>
    </g>
  </g>
</svg>