<?xml version="1.0" encoding="UTF-8" standalone="no"?>
<!-- Uploaded to: SVG Repo, www.svgrepo.com, Transformed by: SVG Repo Mixer Tools -->

<svg
   width="800px"
   height="800px"
   viewBox="0 0 24 24"
   fill="none"
   version="1.1"
   id="svg1"
   sodipodi:docname="phoneLogo.svg"
   inkscape:version="1.3.2 (091e20e, 2023-11-25)"
   xmlns:inkscape="http://www.inkscape.org/namespaces/inkscape"
   xmlns:sodipodi="http://sodipodi.sourceforge.net/DTD/sodipodi-0.dtd"
   xmlns="http://www.w3.org/2000/svg"
   xmlns:svg="http://www.w3.org/2000/svg">
  <defs
     id="defs1" />
  <sodipodi:namedview
     id="namedview1"
     pagecolor="#ffffff"
     bordercolor="#000000"
     borderopacity="0.25"
     inkscape:showpageshadow="2"
     inkscape:pageopacity="0.0"
     inkscape:pagecheckerboard="0"
     inkscape:deskcolor="#d1d1d1"
     showgrid="false"
     inkscape:zoom="0.66733202"
     inkscape:cx="361.88882"
     inkscape:cy="561.18991"
     inkscape:window-width="1920"
     inkscape:window-height="979"
     inkscape:window-x="0"
     inkscape:window-y="0"
     inkscape:window-maximized="1"
     inkscape:current-layer="svg1" />
  <g
     id="SVGRepo_bgCarrier"
     stroke-width="0" />
  <g
     id="SVGRepo_tracerCarrier"
     stroke-linecap="round"
     stroke-linejoin="round" />
  <g
     id="SVGRepo_iconCarrier"
     transform="translate(-1.0000108,1.5000204)">
    <path
       d="m 16.5562,12.9062 -0.4555,0.4528 c 0,0 -1.0826,1.0765 -4.0376,-1.8618 C 9.10812,8.55901 10.1907,7.48257 10.1907,7.48257 l 0.2868,-0.28519 c 0.7066,-0.70254 0.7732,-1.83047 0.1567,-2.6539 L 9.37326,2.85908 C 8.61028,1.83992 7.13596,1.70529 6.26145,2.57483 l -1.5696,1.56069 c -0.43362,0.43116 -0.7242,0.99007 -0.68896,1.61009 0.09015,1.58621 0.80782,4.99909 4.81247,8.98099 4.24674,4.2226 8.23144,4.3904 9.86094,4.2385 0.5154,-0.048 0.9636,-0.3105 1.3248,-0.6697 l 1.4206,-1.4124 c 0.9589,-0.9535 0.6885,-2.5881 -0.5384,-3.255 l -1.9105,-1.0386 c -0.8056,-0.4379 -1.787,-0.3093 -2.4166,0.3168 z"
       fill="#000000"
       id="path1" />
  </g>
</svg>
